<svg xmlns="http://www.w3.org/2000/svg" viewBox="0 0 256 256">
  <defs>
    <linearGradient id="dropletBody" x1="0" y1="0" x2="0.2" y2="1">
      <stop offset="0%" stop-color="#d9f4ff"/>
      <stop offset="38%" stop-color="#7cc5ff"/>
      <stop offset="72%" stop-color="#4a8fe4"/>
      <stop offset="100%" stop-color="#2a5fb5"/>
    </linearGradient>
    <linearGradient id="dropletRim" x1="0" y1="0" x2="1" y2="1">
      <stop offset="0%" stop-color="#effcff"/>
      <stop offset="100%" stop-color="#8ad7ff"/>
    </linearGradient>
    <radialGradient id="dropletInner" cx="40%" cy="32%" r="68%">
      <stop offset="0%" stop-color="#ffffff" stop-opacity=".95"/>
      <stop offset="100%" stop-color="#ffffff" stop-opacity="0"/>
    </radialGradient>
    <filter id="dropletShadow" x="-40%" y="-40%" width="180%" height="210%">
      <feDropShadow dx="0" dy="12" stdDeviation="10" flood-color="#12356b" flood-opacity=".3"/>
    </filter>
  </defs>
  <g filter="url(#dropletShadow)">
    <path d="M128 28c22 34 60 73 60 118 0 39-27 68-60 68s-60-29-60-68c0-45 38-84 60-118Z" fill="url(#dropletBody)" stroke="#2d5b9b" stroke-width="9" stroke-linejoin="round"/>
    <path d="M128 44c17 27 47 59 47 96 0 31-20 53-47 53s-47-22-47-53c0-37 30-69 47-96Z" fill="none" stroke="url(#dropletRim)" stroke-width="6" stroke-linejoin="round" opacity=".8"/>
    <path d="M104 83c-11 15-21 34-21 52 0 7 2 16 7 24" fill="none" stroke="#ffffff" stroke-opacity=".72" stroke-width="12" stroke-linecap="round"/>
    <ellipse cx="112" cy="98" rx="20" ry="34" fill="url(#dropletInner)" transform="rotate(18 112 98)"/>
    <path d="M115 136c12 8 33 8 46-2" fill="none" stroke="#1b4c97" stroke-opacity=".3" stroke-width="8" stroke-linecap="round"/>
  </g>
</svg>
