<svg xmlns="http://www.w3.org/2000/svg" viewBox="0 0 256 256">
  <defs>
    <linearGradient id="leafBody" x1="0" y1="0" x2="1" y2="1">
      <stop offset="0%" stop-color="#d4f298"/>
      <stop offset="48%" stop-color="#87c34a"/>
      <stop offset="100%" stop-color="#4b7d22"/>
    </linearGradient>
    <linearGradient id="leafRim" x1="0" y1="0" x2="1" y2="1">
      <stop offset="0%" stop-color="#f6ffd8"/>
      <stop offset="100%" stop-color="#ffffff" stop-opacity="0"/>
    </linearGradient>
    <filter id="leafShadow" x="-35%" y="-35%" width="170%" height="190%">
      <feDropShadow dx="0" dy="10" stdDeviation="8" flood-color="#274412" flood-opacity=".24"/>
    </filter>
  </defs>
  <g filter="url(#leafShadow)">
    <path d="M60 144c0-60 58-100 137-97 1 79-40 136-100 136-23 0-37-14-37-39Z" fill="url(#leafBody)" stroke="#4a7326" stroke-width="9" stroke-linejoin="round"/>
    <path d="M87 185c29-36 55-70 94-116" fill="none" stroke="#4a7326" stroke-width="8" stroke-linecap="round"/>
    <path d="M112 148c11-13 25-29 43-50" fill="none" stroke="url(#leafRim)" stroke-width="12" stroke-linecap="round"/>
    <path d="M67 184c-10 9-19 16-31 22" fill="none" stroke="#4a7326" stroke-width="9" stroke-linecap="round"/>
    <path d="M121 89c20-12 39-17 55-17" fill="none" stroke="#dff9af" stroke-width="7" stroke-linecap="round" opacity=".85"/>
  </g>
</svg>
