<svg xmlns="http://www.w3.org/2000/svg" viewBox="0 0 256 256">
  <defs>
    <linearGradient id="seedBody" x1="0" y1="0" x2="1" y2="1">
      <stop offset="0%" stop-color="#b97a3f"/>
      <stop offset="46%" stop-color="#865125"/>
      <stop offset="100%" stop-color="#4e2a10"/>
    </linearGradient>
    <linearGradient id="seedSheen" x1="0" y1="0" x2="1" y2="1">
      <stop offset="0%" stop-color="#ffe0a9"/>
      <stop offset="100%" stop-color="#ffffff" stop-opacity="0"/>
    </linearGradient>
    <filter id="seedShadow" x="-35%" y="-35%" width="170%" height="190%">
      <feDropShadow dx="0" dy="10" stdDeviation="8" flood-color="#2b1408" flood-opacity=".28"/>
    </filter>
  </defs>
  <g filter="url(#seedShadow)">
    <path d="M77 68c38-5 88 22 102 64 12 34-12 66-51 75-38 9-73-8-87-45-18-46 1-89 36-94Z" fill="url(#seedBody)" stroke="#4b2b13" stroke-width="9" stroke-linejoin="round"/>
    <path d="M116 80c25 13 43 38 48 68" fill="none" stroke="#bf8550" stroke-width="8" stroke-linecap="round" opacity=".82"/>
    <ellipse cx="134" cy="100" rx="18" ry="36" fill="url(#seedSheen)" opacity=".9" transform="rotate(23 134 100)"/>
    <ellipse cx="158" cy="139" rx="11" ry="23" fill="#ffffff" opacity=".14" transform="rotate(21 158 139)"/>
  </g>
</svg>
